<svg xmlns="http://www.w3.org/2000/svg" viewBox="0 0 1080 1080"><defs><style>.a{fill:#725321;}.b{fill:#231f20;}.c{fill:#ad817a;}.d{fill:none;}</style></defs><path class="a" d="M899.05,539.74c0,200-162.15,362.17-362.17,362.17-174.15,0-308.62-133.47-348.72-264.06-14.67-47.78-13.93-86.05-13.45-98.11,6-149.54,135.65-362.16,362.17-362.16C736.9,177.58,899.05,339.72,899.05,539.74Z"/><path class="b" d="M536.88,927.11c-86.81,0-170-30.7-240.64-88.8-62-51-110.15-121.36-132.17-193.06-10.72-34.92-15.88-72.75-14.53-106.51C153,453,192,358.6,254,286.2c73.84-86.3,174.32-133.82,282.93-133.82,213.6,0,387.37,173.77,387.37,387.37S750.48,927.11,536.88,927.11Zm0-724.33c-208.28,0-331.46,199.84-337,338-.65,16.35.09,49.74,12.36,89.7C248.9,749.83,375.14,876.71,536.88,876.71c185.81,0,337-151.16,337-337S722.69,202.78,536.88,202.78Z"/><path class="c" d="M182.77,617.9c2.5,26.36-145.28-38.12-145.48-201.45-.28-218.38,245.4-139.16,193.9-55.28C201.16,410.08,169.6,479,182.77,617.9Z"/><path class="b" d="M175.37,648.8c-11.26,0-24.72-4.16-40.26-12.48C78.45,606,12.23,530.25,12.09,416.48,12,306.13,68.48,269.59,102.19,257.64c50.55-17.93,114-2.4,144.59,35.33,19.89,24.57,22.09,55,5.88,81.39-30.44,49.58-56.94,113.13-44.8,241.16h0a29.49,29.49,0,0,1-13.05,27.8A34.29,34.29,0,0,1,175.37,648.8Zm-17.69-28.57v0h0ZM146.75,300.55A82.88,82.88,0,0,0,119,305.14C82,318.29,62.41,356.77,62.49,416.41c.12,98.94,59.33,153.93,92.93,173.61-6.6-123.72,23.38-191.69,54.3-242,3.57-5.82,6.11-13.14-2.11-23.3C196.52,311,172.1,300.55,146.75,300.55Z"/><path class="c" d="M723.59,850.13C743.11,837,734.51,753.41,701,715.52c-16.56-18.69,94.71-51.27,94.71-143.84,0-45.57-33.47-100.4-100.4-100.4-50.32,0-60.53,39.16-141.71,42-91.54,3.21-90.71-32.71-158.93-28-55.41,3.81-91.28,35.85-91,102.79C304,685,419.92,700.78,408.52,735c-17.62,52.87-41.95,120.18-11.85,136.56C489.46,922,636.87,908.5,723.59,850.13Z"/><path class="b" d="M534.82,927.62c-54.88,0-108.2-11.11-150.19-34-47.23-25.71-23.5-96.56-2.55-159.08l.77-2.3c-4.39-4.07-13.24-10.14-20.06-14.81-31.45-21.58-84.09-57.68-84.38-129.31-.31-76.34,41.42-123,114.48-128,38.08-2.63,58.73,5.8,78.72,13.94,19.62,8,38.13,15.53,81.06,14,38.81-1.36,58.22-11.91,77-22.12,18-9.79,36.6-19.9,65.59-19.9,78.62,0,125.6,63.86,125.6,125.6,0,70.75-51.7,111-82.58,135.07-2.44,1.89-5.23,4.07-7.83,6.15,22.56,34.84,31.93,84.87,27.66,118.35-2.4,18.89-9.29,32.27-20.46,39.79C682.32,908.28,607.22,927.62,534.82,927.62Zm-125.72-78C489.5,893.09,625,884.44,707,830.89c5.52-15-.87-71.52-24.91-98.66a31.11,31.11,0,0,1-7.88-23.68c1.57-17,14.79-27.31,33.1-41.57,26.65-20.75,63.15-49.18,63.15-95.3,0-29.08-20.41-75.2-75.2-75.2-16.18,0-26.26,5.48-41.51,13.77-21.67,11.78-48.63,26.44-99.31,28.23-53.7,1.87-80.39-9-101.85-17.74-17.32-7-29.82-12.14-56.24-10.33-46.28,3.18-67.74,27.82-67.54,77.55.18,45.2,33.29,67.91,62.49,87.95,23,15.78,51.66,35.43,41.13,67l-2.56,7.67c-7.58,22.63-15.42,46-19.53,66.38C405.58,840.57,408.42,848.2,409.1,849.6Zm297.28-17.29Z"/><path class="b" d="M552,761.46a94.53,94.53,0,0,1-20.81-2.14c-32.3-8.55-21.71-55.35,11.11-49.15,10.8,2.44,28.38-.56,36.92-3,32.33-8.1,45.77,37.8,14.15,48.37A160.51,160.51,0,0,1,552,761.46Z"/><path class="b" d="M456,659.6c-46.24.16-39-73.32,6.34-64.15C499.85,602,494.08,660.54,456,659.6Z"/><path class="b" d="M644.93,659.64c-42,.57-42-65.4,0-64.84C686.93,594.26,686.93,660.22,644.93,659.64Z"/><path class="c" d="M894,600.22c-2.5,26.36,148.49-37.72,148.69-201,.27-218.38-250.3-135.48-198.8-51.6C873.94,396.48,907.19,461.34,894,600.22Z"/><path class="b" d="M901.71,631.15A34.82,34.82,0,0,1,882,625.63a29.5,29.5,0,0,1-13.07-27.79h0c12.23-129-16.26-187.84-46.5-237.08C806.3,334.47,808.64,304,828.7,279.2c31.77-39.25,97.48-55.51,149.58-37,33.53,11.9,89.77,48.11,89.63,157-.14,112.6-66.88,188.24-124,218.8C927.54,626.76,913.42,631.15,901.71,631.15Zm17.4-28.56h0v0Zm13.62-317.65c-26.87,0-53,11.26-64.85,26-8.47,10.46-6,17.74-2.5,23.48,30.84,50.21,62.59,114,55.93,238.7,34.3-18.87,96.07-73.44,96.2-174,.08-58.57-19.32-96.42-56.08-109.46A86,86,0,0,0,932.73,284.94Z"/><rect class="d" width="1080" height="1080"/></svg>